<?xml version="1.0" encoding="utf-8"?><svg xmlns="http://www.w3.org/2000/svg" xmlns:xlink="http://www.w3.org/1999/xlink"><symbol viewBox="0 0 20 20" id="align-justified" xmlns="http://www.w3.org/2000/svg"><title>align-justified</title><path d="M1 1h18v2H1V1zm0 8h18v2H1V9zm0 8h18v2H1v-2zM1 5h18v2H1V5zm0 8h18v2H1v-2z"/></symbol><symbol viewBox="0 0 20 20" id="menu" xmlns="http://www.w3.org/2000/svg"><title>menu</title><path d="M0 3h20v2H0V3zm0 6h20v2H0V9zm0 6h20v2H0v-2z"/></symbol><symbol viewBox="0 0 20 20" id="star" xmlns="http://www.w3.org/2000/svg"><title>star2</title><path d="M10 1.3l2.388 6.722H18.8l-5.232 3.948 1.871 6.928L10 14.744l-5.438 4.154 1.87-6.928-5.233-3.948h6.412L10 1.3z"/></symbol><symbol viewBox="0 0 20 20" id="view-tile" xmlns="http://www.w3.org/2000/svg"><title>view-tile</title><path d="M0 0h9v9H0V0zm2 2v5h5V2H2zm-2 9h9v9H0v-9zm2 2v5h5v-5H2zm9-13h9v9h-9V0zm2 2v5h5V2h-5zm-2 9h9v9h-9v-9zm2 2v5h5v-5h-5z"/></symbol></svg>